<?xml version="1.0" standalone="no"?>
<!DOCTYPE svg PUBLIC "-//W3C//DTD SVG 20010904//EN"
 "http://www.w3.org/TR/2001/REC-SVG-20010904/DTD/svg10.dtd">
<svg version="1.0" xmlns="http://www.w3.org/2000/svg"
 width="420.000000pt" height="420.000000pt" viewBox="0 0 420.000000 420.000000"
 preserveAspectRatio="xMidYMid meet">
<metadata>
Created by potrace 1.11, written by Peter Selinger 2001-2013
</metadata>
<g transform="translate(0.000000,420.000000) scale(0.100000,-0.100000)"
fill="#000000" stroke="none">
<path d="M1822 2905 c-84 -28 -149 -91 -170 -166 -13 -48 -7 -131 13 -173 32
-67 76 -96 260 -172 39 -15 85 -42 104 -59 28 -27 33 -38 33 -75 -1 -79 -58
-111 -185 -106 -63 3 -98 12 -188 50 -14 6 -21 -5 -39 -58 -12 -36 -19 -70
-16 -74 3 -5 38 -20 78 -33 62 -20 93 -24 198 -24 108 1 132 4 175 23 97 44
144 114 145 212 0 138 -62 214 -224 274 -143 54 -196 97 -196 159 0 34 34 74
75 87 45 15 140 6 207 -20 29 -11 52 -19 53 -17 8 13 47 129 44 131 -2 3 -29
14 -59 26 -70 28 -243 37 -308 15z"/>
<path d="M50 2465 l0 -436 81 3 81 3 0 193 0 192 186 -2 187 -3 0 -192 0 -193
81 0 81 0 -1 433 -1 432 -80 3 -80 3 0 -168 0 -168 -188 -3 -187 -2 2 167 2
168 -82 3 -82 3 0 -436z"/>
<path d="M952 2465 l0 -435 294 0 294 0 0 70 0 70 -214 0 -214 0 1 123 2 122
178 3 177 2 0 70 0 70 -179 0 -179 0 1 100 0 100 199 0 198 0 0 70 0 70 -279
0 -279 0 0 -435z"/>
<path d="M2597 2873 c-67 -132 -327 -795 -327 -833 0 -7 30 -10 82 -8 l82 3
34 98 35 97 181 0 181 0 35 -98 35 -97 89 -3 c82 -3 88 -1 81 15 -3 10 -37
101 -75 203 -67 184 -152 395 -226 562 l-39 88 -77 0 c-75 0 -78 -1 -91 -27z
m163 -333 c33 -84 60 -157 60 -161 0 -5 -61 -9 -135 -9 -74 0 -135 4 -135 9 0
9 67 189 95 256 10 22 22 51 27 65 12 32 11 33 88 -160z"/>
<path d="M3267 2893 c-3 -5 -8 -39 -12 -78 -3 -38 -8 -83 -10 -100 -5 -41 -14
-144 -20 -240 -3 -44 -8 -107 -10 -140 -2 -33 -7 -115 -11 -182 l-6 -123 80 0
80 0 2 98 c2 110 5 180 15 337 4 61 7 120 6 132 -2 52 20 25 72 -90 30 -67 68
-149 83 -182 15 -33 37 -85 50 -115 l22 -55 64 -3 63 -2 59 137 c79 182 156
346 160 342 5 -6 15 -131 22 -274 3 -71 7 -164 9 -205 2 -41 4 -85 4 -97 1
-22 5 -23 81 -23 l79 0 -4 43 c-2 23 -6 94 -10 157 -7 131 -13 233 -20 305
-11 127 -27 292 -30 310 -2 11 -4 28 -4 38 -1 15 -11 17 -75 17 l-75 0 -64
-132 c-75 -153 -100 -209 -152 -331 -21 -48 -39 -86 -41 -85 -1 2 -35 75 -74
163 -39 88 -97 211 -128 273 l-57 112 -72 0 c-39 0 -74 -3 -76 -7z"/>
<path d="M579 2005 c-3 -6 -6 -26 -7 -45 -2 -26 0 -31 7 -20 5 8 8 17 5 22 -3
4 9 14 25 23 19 9 32 11 36 5 3 -6 11 -10 16 -10 6 0 7 4 4 10 -3 6 1 7 10 3
12 -4 13 -8 5 -13 -8 -5 -8 -10 -2 -14 5 -3 15 1 22 9 7 8 18 15 24 15 6 0 3
-5 -7 -11 -17 -10 -15 -29 4 -29 6 0 8 4 4 9 -3 5 0 13 6 17 6 3 15 1 19 -6 6
-9 9 -9 15 0 10 16 1 22 -39 23 -19 0 -33 3 -31 7 2 3 -19 6 -45 6 -27 0 -47
-3 -44 -8 3 -4 1 -8 -5 -8 -5 0 -11 5 -13 12 -3 7 -7 8 -9 3z"/>
<path d="M545 1990 c4 -7 -3 -9 -19 -6 -20 4 -24 1 -19 -12 4 -9 14 -23 22
-30 14 -10 14 -12 1 -10 -8 2 -19 8 -23 13 -5 6 -6 2 -3 -8 3 -11 2 -16 -5
-12 -5 4 -7 15 -4 26 4 11 2 19 -4 19 -6 0 -12 -4 -12 -10 -1 -5 -2 -16 -3
-22 -1 -7 5 -19 14 -26 12 -10 10 -10 -13 0 -15 6 -24 14 -20 17 4 3 9 13 11
21 2 11 -2 9 -13 -4 -8 -10 -12 -22 -10 -27 3 -4 2 -9 -2 -12 -5 -2 -3 -2 4
-1 7 2 10 -3 7 -11 -3 -8 -13 -11 -21 -8 -13 5 -15 2 -11 -15 4 -12 2 -25 -4
-28 -6 -4 -5 -10 3 -15 22 -14 33 -10 19 6 -10 12 -10 15 1 15 11 0 11 3 -1
11 -12 9 -12 10 3 5 10 -3 22 -6 25 -6 4 0 1 -4 -6 -8 -7 -5 -10 -16 -6 -25 3
-9 10 -14 15 -11 10 6 8 32 -4 52 -10 14 0 32 16 31 9 0 9 -2 0 -6 -7 -2 -13
-9 -13 -14 0 -18 16 -8 33 21 10 16 21 29 25 29 22 -4 30 4 27 26 -1 14 2 25
7 25 5 0 6 5 3 10 -3 6 -11 10 -16 10 -6 0 -7 -5 -4 -10z"/>
<path d="M614 1976 c-21 -12 -32 -40 -12 -33 7 2 12 9 11 14 -2 12 35 14 42 2
3 -5 -1 -6 -9 -3 -9 3 -16 2 -16 -3 0 -11 38 -14 45 -3 3 4 -5 15 -18 23 -18
12 -27 12 -43 3z"/>
<path d="M1163 1981 c-4 -3 -14 -18 -20 -33 -10 -22 -9 -26 5 -24 9 2 18 9 20
16 3 7 0 10 -7 6 -7 -5 -9 -1 -4 9 5 13 7 14 14 3 8 -11 13 -5 10 14 0 3 5 5
12 4 16 -2 21 -21 5 -21 -19 0 -20 -21 -1 -21 10 -1 27 -4 38 -8 14 -6 16 -5
7 2 -8 5 -13 11 -11 13 1 2 -1 14 -5 25 -6 21 -42 30 -63 15z"/>
<path d="M1636 1983 c-10 -10 -7 -43 5 -43 5 0 7 5 3 12 -4 6 -3 8 4 4 5 -3
13 0 16 6 3 7 4 4 1 -8 -4 -14 0 -21 10 -21 18 0 18 5 2 32 -13 21 -30 29 -41
18z"/>
<path d="M1687 1973 c3 -10 10 -23 15 -30 5 -7 7 -21 3 -31 -4 -13 -1 -19 7
-18 7 0 14 -3 16 -9 1 -5 -7 -11 -18 -11 -11 -1 -17 3 -14 7 3 5 -3 9 -12 9
-16 0 -15 -2 3 -22 12 -13 31 -44 43 -70 20 -42 38 -54 56 -35 6 6 -9 11 -27
9 -3 -1 -11 10 -18 24 -8 19 -8 23 0 18 7 -4 10 -1 7 7 -3 8 -11 13 -17 11 -7
-1 -10 2 -7 7 4 5 3 11 -1 14 -5 2 -2 2 5 0 8 -2 18 -1 23 2 10 7 -10 55 -23
55 -4 0 -7 3 -6 8 1 4 -4 19 -10 34 -12 30 -35 49 -25 21z"/>
<path d="M2190 1970 c-11 -11 -20 -25 -20 -30 0 -6 -11 -28 -24 -49 -14 -21
-22 -42 -19 -45 4 -3 1 -6 -6 -6 -7 0 -10 -4 -6 -9 3 -5 0 -13 -6 -16 -5 -4
-8 -13 -6 -19 4 -10 -4 -10 -33 -2 -70 18 -115 -27 -85 -85 11 -19 9 -26 -11
-46 -28 -28 -32 -74 -9 -97 12 -12 13 -20 5 -35 -12 -24 -13 -34 -1 -27 5 3
11 -1 15 -9 5 -15 28 -22 24 -7 -5 15 24 52 40 52 10 0 28 7 40 16 21 15 25
15 41 0 19 -17 41 -21 41 -8 0 5 -9 17 -19 26 -18 16 -18 21 -6 51 13 30 11
45 -6 45 -4 0 -10 -11 -13 -25 -7 -27 -20 -32 -32 -13 -11 17 -12 48 -2 42 4
-3 8 2 8 11 0 10 -5 14 -12 10 -7 -4 -4 1 7 10 11 9 19 23 17 31 -2 8 2 13 9
12 6 -2 14 3 16 10 3 6 0 12 -7 12 -6 0 -8 -4 -5 -10 4 -6 -1 -7 -11 -3 -15 6
-15 7 0 15 14 8 15 12 4 26 -10 14 -9 14 8 -1 17 -14 23 -15 27 -4 3 8 1 20
-5 28 -7 11 -8 9 -3 -6 3 -11 2 -16 -2 -11 -13 13 -10 55 5 61 8 3 10 10 6 17
-5 8 0 7 11 -2 17 -14 18 -13 12 4 -4 10 -2 25 4 32 6 7 8 17 6 22 -3 4 -1 14
5 22 8 13 9 12 5 -2 -3 -9 0 -19 7 -21 8 -3 13 5 13 24 0 34 -1 35 -27 9z
m-122 -216 c3 -21 -21 -54 -39 -54 -17 0 -31 51 -18 67 18 20 53 12 57 -13z
m-1 -86 c-3 -8 -6 -5 -6 6 -1 11 2 17 5 13 3 -3 4 -12 1 -19z m-49 -35 c-8
-10 -14 -23 -11 -29 2 -6 -3 -14 -12 -17 -21 -9 -20 41 2 65 22 25 43 6 21
-19z m53 -18 c19 12 22 -28 4 -41 -23 -17 -36 -18 -32 -3 1 6 -4 14 -12 17 -8
2 -11 0 -8 -5 3 -5 0 -10 -8 -10 -11 0 -12 4 -4 13 5 6 8 18 7 25 -2 8 3 13
10 12 6 -2 12 3 12 10 0 6 5 4 11 -6 6 -9 14 -15 20 -12z m-66 -92 c-2 -10 -4
-20 -4 -22 -1 -3 -7 1 -13 7 -10 10 -10 15 2 22 19 12 19 13 15 -7z"/>
<path d="M2031 1604 c14 -17 32 -19 27 -2 -2 6 -12 12 -22 14 -14 2 -15 0 -5
-12z"/>
<path d="M2229 1978 c-1 -7 -3 -20 -4 -28 -1 -8 -3 -22 -4 -30 -1 -12 -3 -12
-10 -2 -6 10 -10 10 -20 -2 -10 -12 -9 -19 3 -38 8 -13 15 -26 16 -30 0 -5 0
-11 1 -15 0 -5 1 -25 1 -45 0 -21 4 -39 9 -39 5 -1 14 -3 19 -4 6 -1 13 -3 16
-4 4 0 1 -8 -6 -16 -6 -8 -17 -13 -23 -12 -10 2 -10 -21 -2 -118 2 -16 3 -43
4 -58 1 -19 5 -26 14 -22 6 4 3 -1 -8 -11 -20 -16 -20 -16 1 -11 30 6 55 -9
34 -22 -8 -6 -19 -6 -25 -1 -7 6 -11 2 -12 -13 -1 -12 3 -25 10 -29 19 -12 27
-9 21 7 -4 8 -2 15 3 15 4 0 9 -13 9 -30 1 -16 -3 -30 -8 -30 -5 0 -6 5 -3 10
3 6 2 10 -4 10 -5 0 -11 -3 -14 -7 -2 -5 -2 -2 -1 5 2 6 -1 12 -6 12 -5 0 -9
-11 -8 -25 1 -14 7 -24 13 -24 5 1 19 1 30 0 15 -1 17 -3 6 -10 -11 -7 -11 -9
0 -14 9 -4 10 -6 2 -6 -7 -1 -10 -8 -7 -18 5 -15 4 -16 -5 -3 -10 13 -12 13
-22 0 -9 -13 -10 -12 -5 3 4 11 2 16 -5 12 -18 -12 -3 -28 27 -30 l30 -1 -3
65 c-2 36 -3 80 -4 98 0 19 -6 33 -15 37 -10 4 -14 13 -10 22 4 11 2 15 -7 11
-10 -4 -13 4 -12 29 2 18 -1 31 -6 28 -5 -3 -9 -1 -9 4 0 11 30 25 38 17 3 -3
1 -5 -5 -5 -5 0 -10 -7 -10 -15 0 -9 5 -14 11 -12 7 2 10 29 10 68 -3 104 -6
118 -27 116 -21 -2 -35 37 -17 48 6 4 8 10 6 14 -3 4 1 8 9 8 10 0 12 -4 5
-12 -6 -8 -5 -18 4 -31 13 -17 14 -14 13 29 -1 26 -4 47 -7 47 -3 0 -5 18 -3
40 1 29 -2 40 -13 40 -7 0 -14 5 -14 11 0 5 5 7 10 4 6 -3 10 1 10 9 0 19 -19
22 -21 4z m17 -82 c1 -34 -3 -45 -16 -49 -10 -2 -17 1 -17 10 0 8 5 12 12 10
6 -3 12 4 12 15 1 14 -1 17 -10 9 -14 -11 -46 3 -34 16 5 4 12 1 16 -6 7 -11
10 -11 17 0 5 8 9 17 10 22 6 30 9 21 10 -27z m13 -197 c-12 -7 -12 -9 1 -9
11 0 12 -2 3 -8 -8 -5 -9 -13 -3 -22 6 -8 10 -19 9 -25 0 -5 -6 1 -15 15 -14
23 -14 23 -9 3 4 -13 2 -23 -3 -23 -5 0 -8 10 -8 23 1 12 -1 29 -5 37 -5 11 0
15 19 17 18 1 21 -1 11 -8z"/>
<path d="M2482 1979 c7 -5 20 -6 29 -4 22 7 41 -16 28 -35 -8 -12 -9 -11 -7 4
2 10 -2 21 -9 23 -8 3 -11 -3 -8 -16 2 -12 0 -21 -6 -21 -5 0 -9 -5 -9 -11 0
-7 7 -8 18 -4 9 4 92 8 184 8 113 0 166 4 165 11 -3 15 -19 26 -30 19 -5 -3
-5 -8 1 -12 6 -4 -13 -7 -43 -7 -40 -1 -56 3 -60 14 -5 14 10 31 27 32 4 0 13
-9 20 -20 15 -24 25 -26 25 -5 0 8 -4 15 -9 15 -5 0 -7 3 -4 8 2 4 -13 8 -34
8 -22 1 -37 -3 -34 -8 3 -4 0 -8 -5 -8 -12 0 -11 -21 1 -30 4 -3 -17 -6 -47
-6 -40 -1 -56 3 -60 14 -5 14 10 31 27 32 4 0 13 -9 20 -20 17 -27 31 -25 18
3 -10 20 -10 20 3 5 18 -23 22 -22 24 0 1 15 -7 18 -52 18 -30 0 -52 -3 -49
-8 3 -4 0 -8 -5 -8 -12 0 -11 -22 2 -31 4 -3 -5 -6 -21 -6 -25 0 -29 4 -28 24
1 20 3 21 12 8 15 -20 19 -19 21 3 1 15 -8 18 -59 18 -36 1 -54 -2 -46 -7z"/>
<path d="M2813 1970 c1 -21 12 -26 22 -10 3 5 13 6 22 3 15 -6 16 -5 3 9 -11
11 -17 12 -22 4 -6 -8 -8 -8 -8 2 0 6 -4 12 -9 12 -6 0 -9 -9 -8 -20z"/>
<path d="M3024 1868 c0 -65 3 -113 7 -106 4 7 11 9 16 5 10 -11 -16 -27 -44
-27 -11 0 -33 -14 -47 -31 -54 -63 -18 -169 57 -169 10 0 13 -30 12 -117 l0
-118 31 -1 c20 -1 31 4 31 12 0 15 -10 18 -21 7 -12 -13 -33 -11 -33 3 0 7 4
11 9 8 4 -3 8 -1 8 5 0 5 -6 12 -12 14 -10 4 -9 6 1 6 11 1 11 4 1 17 -11 12
-11 15 0 12 7 -2 15 3 17 10 3 7 1 11 -4 10 -4 -2 -8 2 -8 7 0 6 5 9 12 7 8
-2 10 3 7 12 -3 8 -13 12 -22 9 -15 -4 -15 -3 -2 6 13 10 13 12 0 21 -11 7
-11 10 -2 10 7 0 11 4 7 9 -3 5 -1 12 5 16 5 3 10 11 10 17 0 6 -7 5 -17 -3
-17 -12 -17 -12 -1 6 22 23 37 11 20 -15 -12 -20 -6 -26 13 -12 12 9 13 52 1
71 -6 9 -5 12 0 8 21 -12 20 139 0 159 -18 18 -20 30 -6 39 5 3 7 0 4 -8 -3
-8 -2 -17 3 -20 4 -3 9 10 9 29 1 19 -3 34 -8 34 -5 0 -7 -4 -4 -9 8 -12 -18
-21 -33 -11 -9 5 -10 10 -2 14 6 4 11 12 11 17 0 6 -4 8 -8 5 -4 -2 -8 4 -8
14 0 10 4 16 8 14 13 -8 9 11 -4 26 -11 12 -10 12 3 2 13 -10 16 -7 16 18 0
26 -3 28 -16 17 -14 -10 -14 -10 -3 5 10 13 10 17 0 21 -8 3 -6 6 6 6 16 1 17
3 5 18 -10 11 -10 14 -1 9 6 -4 12 -3 12 3 0 5 -8 9 -17 8 -16 -1 -18 -14 -19
-119z m-3 -158 c6 -50 3 -55 -29 -58 -24 -2 -32 1 -32 12 0 30 58 73 61 46z
m29 -30 c0 -5 -4 -10 -10 -10 -5 0 -10 5 -10 10 0 6 5 10 10 10 6 0 10 -4 10
-10z m-30 -60 c0 -5 5 -10 11 -10 5 0 7 6 3 13 -5 8 -2 8 9 -2 12 -9 17 -10
17 -2 0 7 5 9 12 5 9 -6 9 -9 0 -12 -7 -2 -10 -7 -7 -11 2 -5 -2 -16 -9 -27
-13 -17 -13 -16 -11 10 3 23 1 25 -11 15 -8 -7 -13 -18 -10 -26 8 -20 -21 -16
-44 7 -30 30 -26 50 10 50 17 0 30 -4 30 -10z"/>
<path d="M3074 1983 c4 -7 3 -13 -1 -13 -5 0 -10 -24 -10 -52 -1 -29 -4 -69
-6 -90 -5 -34 -4 -35 12 -20 12 11 17 29 15 50 -1 19 0 31 4 28 3 -3 11 -1 19
6 10 8 19 6 38 -12 19 -18 25 -20 25 -8 0 30 -73 50 -91 24 -4 -5 -5 6 -4 25
2 19 4 39 5 44 0 6 4 4 9 -4 5 -7 7 -23 5 -35 -2 -11 -2 -16 2 -9 3 7 11 11
17 9 7 -1 9 -1 5 1 -5 3 -8 10 -8 17 0 7 -10 21 -22 32 -12 10 -18 13 -14 7z"/>
<path d="M3483 1974 c0 -7 4 -11 9 -8 4 3 8 0 8 -5 0 -6 -4 -11 -8 -11 -5 0
-9 -7 -9 -15 0 -10 4 -12 13 -4 8 7 17 5 28 -6 21 -22 21 -23 -12 -19 -20 2
-29 -1 -29 -11 0 -8 4 -12 9 -9 4 3 8 0 8 -5 0 -6 -4 -11 -8 -11 -5 0 -9 -7
-9 -15 0 -10 4 -12 13 -4 8 7 17 5 28 -6 21 -22 21 -23 -12 -19 -20 2 -29 -1
-29 -11 0 -8 4 -12 9 -9 4 3 8 0 8 -5 0 -6 -4 -11 -8 -11 -5 0 -9 -7 -9 -15 0
-8 5 -11 11 -8 20 13 44 10 39 -4 -5 -12 -17 -17 -36 -14 -4 1 -15 -5 -23 -13
-11 -11 -14 -44 -14 -140 0 -69 3 -126 8 -127 4 0 17 -2 30 -3 30 -4 44 -19
36 -40 -5 -13 -9 -14 -20 -5 -8 7 -14 7 -14 1 0 -5 7 -15 15 -22 11 -9 15 -9
15 -1 0 7 4 10 8 7 5 -3 8 20 7 52 -2 66 2 82 20 82 7 0 24 12 39 26 47 48 32
138 -28 167 l-32 15 1 119 c1 92 -2 120 -12 120 -7 0 -13 -4 -13 -9 0 -4 4 -8
8 -8 5 0 9 -6 9 -14 0 -8 -6 -12 -13 -9 -8 3 -13 8 -12 11 2 19 -3 29 -15 29
-8 0 -14 -6 -14 -13z m50 -98 c4 -10 1 -13 -9 -9 -15 6 -19 23 -5 23 5 0 11
-7 14 -14z m-3 -76 c0 -5 -4 -10 -10 -10 -5 0 -10 5 -10 10 0 6 5 10 10 10 6
0 10 -4 10 -10z m56 -105 c21 -28 18 -91 -6 -115 -23 -23 -36 -24 -69 -6 -20
11 -21 14 -7 19 10 4 15 3 12 -2 -5 -7 14 -21 28 -21 10 0 -1 60 -11 65 -8 2
-11 1 -8 -4 3 -5 0 -13 -6 -17 -8 -5 -9 -3 -4 6 6 10 4 12 -10 6 -15 -5 -16
-4 -5 9 10 12 10 15 -1 15 -10 1 -8 4 4 11 9 5 17 15 17 21 0 7 -4 7 -13 -1
-10 -8 -14 -7 -14 4 0 8 5 11 10 8 6 -4 8 0 5 9 -9 23 61 17 78 -7z m-83 -170
c-4 -11 -1 -13 11 -9 9 3 13 11 9 17 -3 6 -1 7 5 3 6 -4 9 -13 6 -21 -4 -8
-10 -12 -15 -9 -16 10 -9 -8 9 -23 15 -13 15 -13 -4 -4 -12 6 -23 9 -25 6 -2
-2 -5 12 -5 30 0 19 3 32 7 29 5 -2 6 -11 2 -19z"/>
<path d="M3525 1692 c3 -8 0 -21 -6 -28 -8 -10 -8 -14 0 -14 6 0 14 0 18 0 4
0 8 13 9 28 1 19 -3 29 -13 29 -8 0 -12 -6 -8 -15z"/>
<path d="M3735 1873 l0 -115 -39 -39 c-36 -38 -38 -43 -33 -87 4 -37 12 -52
38 -74 18 -16 40 -27 49 -25 9 1 15 -5 15 -16 0 -10 8 -23 17 -28 14 -8 16 -6
13 11 -2 11 -6 24 -9 29 -3 5 1 11 9 15 27 10 16 27 -15 22 -36 -5 -48 9 -26
33 9 10 14 20 11 23 -3 3 2 5 12 5 52 0 53 1 47 41 -3 20 -11 40 -18 44 -7 5
-11 47 -12 120 -2 147 -3 162 -9 156 -11 -11 -14 -52 -5 -63 6 -7 3 -11 -10
-12 -14 -1 -18 4 -16 23 2 13 6 27 9 31 12 11 8 19 -11 20 -16 1 -18 -9 -17
-114z m47 20 c-6 -3 -9 -10 -5 -16 14 -22 13 -39 -1 -28 -13 11 -26 5 -26 -11
0 -5 4 -7 9 -3 6 3 15 -4 22 -17 9 -16 9 -23 0 -26 -6 -2 -8 -9 -5 -14 4 -7 2
-8 -4 -4 -15 9 -15 -7 -1 -21 9 -9 7 -11 -6 -9 -13 2 -19 12 -20 34 -1 23 2
29 10 22 7 -5 15 -7 18 -3 4 3 -1 12 -11 19 -10 7 -17 26 -17 46 -1 29 3 33
25 34 14 1 19 -1 12 -3z m-28 -185 c-3 -5 -10 -5 -16 -2 -7 5 -9 1 -5 -9 9
-25 -2 -47 -24 -47 -24 0 -24 25 -1 48 18 18 56 27 46 10z m16 -30 c0 -10 2
-10 9 0 7 11 9 11 14 -1 8 -22 -2 -28 -24 -14 -20 13 -25 27 -9 27 6 0 10 -6
10 -12z m-25 -57 c3 -5 1 -12 -5 -16 -5 -3 -10 -16 -10 -28 l-1 -22 -19 24
c-11 13 -20 29 -20 37 0 16 45 20 55 5z"/>
<path d="M3750 1876 c0 -2 7 -7 16 -10 8 -3 12 -2 9 4 -6 10 -25 14 -25 6z"/>
<path d="M733 1949 c-1 -10 3 -22 9 -25 7 -5 8 -2 3 6 -5 8 -4 11 3 6 6 -3 13
-3 16 2 2 4 -3 13 -13 19 -14 9 -17 7 -18 -8z"/>
<path d="M770 1959 c0 -6 7 -8 16 -5 8 3 12 2 9 -4 -3 -6 -1 -10 4 -10 6 0 11
7 11 15 0 8 -9 15 -20 15 -11 0 -20 -5 -20 -11z"/>
<path d="M2474 1920 c-1 -42 1 -48 13 -38 8 6 11 18 8 25 -2 8 0 24 6 35 8 15
8 19 0 14 -6 -4 -11 -2 -11 3 0 6 -4 11 -8 11 -4 0 -8 -23 -8 -50z"/>
<path d="M2625 1961 c-7 -12 12 -24 25 -16 11 7 4 25 -10 25 -5 0 -11 -4 -15
-9z"/>
<path d="M2745 1961 c-7 -12 12 -24 25 -16 11 7 4 25 -10 25 -5 0 -11 -4 -15
-9z"/>
<path d="M690 1952 c0 -12 19 -26 26 -19 2 2 -2 10 -11 17 -9 8 -15 8 -15 2z"/>
<path d="M764 1929 c-3 -6 0 -15 7 -20 14 -8 32 9 23 23 -7 11 -22 10 -30 -3z"/>
<path d="M1170 1917 c0 -4 -6 -7 -12 -6 -25 3 -38 -1 -38 -11 0 -6 11 -8 24
-6 20 4 23 1 19 -12 -5 -11 -8 -12 -11 -3 -3 8 -8 7 -19 -6 -8 -10 -12 -12 -8
-5 3 6 2 12 -3 12 -6 0 -15 -12 -21 -27 -6 -16 -15 -38 -21 -51 -8 -18 -7 -23
3 -19 6 2 13 9 13 15 1 7 2 17 3 22 0 6 7 10 14 10 8 0 19 10 25 23 10 20 11
20 9 2 -1 -11 -6 -24 -12 -28 -6 -5 -5 -7 3 -5 8 2 12 6 10 9 -2 3 5 17 15 32
10 15 15 32 12 37 -3 6 3 10 14 10 12 0 21 4 21 9 0 6 -9 9 -20 8 -11 -1 -20
-5 -20 -10z"/>
<path d="M1620 1926 c0 -2 9 -6 20 -9 11 -3 20 -1 20 4 0 5 -9 9 -20 9 -11 0
-20 -2 -20 -4z"/>
<path d="M1656 1891 c-13 -35 -7 -71 13 -71 9 0 7 43 -3 59 -4 5 3 15 14 21
23 13 26 27 5 27 -8 0 -21 -16 -29 -36z"/>
<path d="M1209 1904 c-7 -9 -8 -14 -1 -14 5 0 8 -9 5 -20 -5 -21 11 -28 22
-10 3 6 2 10 -3 10 -5 0 -9 6 -9 14 0 8 6 12 13 9 15 -5 13 -25 -5 -47 -18
-21 -3 -20 23 1 19 16 19 15 -1 -6 l-22 -24 20 -39 c11 -21 17 -38 14 -38 -3
0 0 -10 7 -22 7 -13 11 -27 9 -33 -1 -5 1 -7 5 -2 12 11 16 49 5 42 -5 -3 -13
-1 -16 5 -4 6 -3 10 2 9 22 -4 23 3 2 21 -13 10 -20 19 -15 20 5 0 1 10 -10
22 -19 22 -19 22 0 8 17 -13 19 -13 14 0 -3 8 -1 23 4 33 6 13 4 19 -7 24 -13
5 -14 7 -3 14 10 7 11 9 0 9 -7 0 -11 4 -8 9 10 15 -33 20 -45 5z"/>
<path d="M1622 1858 c-1 -29 -4 -62 -6 -73 -3 -11 -5 -26 -5 -32 -1 -7 -10
-13 -20 -13 -11 0 -31 -14 -45 -31 -44 -52 -30 -136 25 -159 16 -7 26 -16 23
-21 -3 -5 -1 -9 5 -9 5 0 13 5 16 10 9 15 27 1 21 -17 -4 -9 -2 -11 6 -7 7 4
8 3 4 -4 -5 -8 -13 -9 -25 -2 -25 13 -33 2 -16 -24 13 -20 15 -24 15 -43 0 -5
5 -1 10 7 6 10 4 21 -8 34 -16 18 -16 18 6 5 14 -9 20 -19 16 -29 -4 -8 -7
-26 -7 -40 0 -14 -2 -19 -4 -12 -4 10 -8 9 -17 -3 -10 -15 -12 -14 -12 4 0 11
4 17 8 15 4 -3 8 -1 8 5 0 5 -5 13 -10 16 -6 4 -8 11 -5 16 4 5 2 9 -4 9 -5 0
-9 -12 -7 -27 1 -16 -1 -38 -5 -50 -6 -16 -4 -25 9 -32 10 -6 12 -11 5 -11
-16 0 -17 -40 -1 -40 6 0 8 3 5 7 -4 3 -1 13 5 21 10 11 8 17 -7 28 -17 12
-17 14 -2 14 28 0 32 -4 33 -34 1 -17 -1 -24 -6 -16 -5 8 -10 9 -14 2 -3 -6
-2 -13 4 -17 19 -12 30 6 26 45 -2 22 0 38 5 34 5 -3 5 6 -1 20 -5 14 -6 26
-2 26 4 0 8 24 8 53 0 28 4 60 9 70 7 16 4 18 -23 14 -29 -5 -31 -4 -21 15 6
11 8 22 5 26 -3 3 -6 0 -6 -7 0 -7 -5 -9 -12 -5 -6 4 -8 3 -5 -2 3 -6 2 -16
-2 -23 -7 -11 -13 -9 -30 8 -29 29 -27 51 4 51 14 0 25 -4 25 -10 0 -5 5 -10
11 -10 5 0 7 5 3 11 -3 6 5 4 19 -6 15 -9 28 -12 31 -6 3 5 0 12 -6 14 -7 3
-3 6 9 6 18 1 21 6 18 29 -2 15 -8 39 -14 53 -7 19 -6 30 2 39 10 10 7 10 -11
1 -23 -12 -42 -8 -42 10 0 5 7 9 15 9 8 0 15 5 15 11 0 5 -4 8 -8 5 -4 -2 -8
4 -8 15 0 18 2 18 12 5 6 -9 15 -12 19 -8 4 4 2 -3 -4 -15 -9 -18 -9 -22 2
-18 15 6 20 45 6 45 -30 0 -42 41 -24 83 5 11 3 17 -7 17 -11 0 -15 -14 -16
-52z m-17 -155 c-5 -14 -3 -15 6 -6 9 9 15 9 25 -2 18 -18 18 -31 1 -16 -14
11 -27 5 -27 -11 0 -5 5 -6 10 -3 6 3 10 2 10 -3 0 -5 -18 -9 -40 -10 -46 -2
-53 15 -20 48 25 25 45 26 35 3z"/>
<path d="M2509 1893 c-9 -10 -16 -28 -17 -41 -1 -20 2 -21 14 -11 10 8 11 15
4 24 -8 10 -8 15 1 21 8 4 9 3 5 -4 -4 -7 -1 -12 8 -12 18 0 20 8 8 28 -7 10
-12 8 -23 -5z"/>
<path d="M3107 1883 c-13 -12 -7 -26 6 -15 16 14 16 15 25 -165 7 -145 15
-172 48 -159 16 6 16 7 0 19 -14 10 -16 28 -14 116 l3 104 28 -41 c23 -32 29
-53 30 -97 2 -49 6 -60 30 -81 16 -13 39 -24 53 -24 13 0 33 -9 44 -20 11 -11
18 -20 15 -20 -3 0 2 -11 10 -24 20 -31 58 -31 50 -1 -3 11 3 4 14 -15 11 -19
20 -29 21 -22 0 15 -37 72 -55 84 -5 4 -7 8 -2 8 4 0 1 10 -7 23 -10 15 -12
27 -6 37 5 8 10 32 10 53 0 55 -45 99 -97 96 -21 -1 -48 -8 -61 -16 -12 -7
-21 -9 -20 -4 2 5 -6 16 -16 24 -15 11 -16 16 -6 22 9 5 11 4 6 -3 -4 -7 -2
-12 3 -12 6 0 11 8 11 18 0 14 2 15 10 2 6 -9 5 -17 -2 -21 -6 -4 -6 -9 -1
-12 5 -3 14 -2 20 1 8 5 4 18 -13 40 -25 31 -54 43 -54 21 0 -6 7 -9 15 -6 8
4 17 1 21 -6 4 -7 4 -9 -1 -5 -4 4 -13 4 -19 -2 -8 -6 -16 -3 -24 10 -10 16
-8 20 10 26 19 6 19 7 4 16 -9 5 -14 13 -11 19 3 5 0 6 -8 4 -7 -3 -22 3 -32
15 -19 21 -28 24 -38 13z m69 -56 c6 -9 5 -9 -8 0 -8 7 -17 10 -20 7 -3 -2 -8
2 -12 11 -4 13 -2 14 14 5 10 -5 22 -16 26 -23z m184 -127 c24 -24 29 -97 6
-97 -8 0 -12 6 -9 14 4 9 0 11 -11 7 -10 -4 -18 0 -22 10 -3 9 -11 13 -17 9
-6 -3 -7 -1 -3 5 4 7 2 12 -4 12 -19 0 -24 -32 -7 -45 10 -7 17 -17 17 -23 0
-6 4 -13 9 -16 18 -11 4 27 -14 40 -10 8 -15 14 -9 14 19 -1 46 -29 38 -41 -5
-9 -2 -10 12 -6 18 7 18 7 0 -8 -26 -20 -42 -19 -66 5 -22 22 -27 69 -8 88 7
7 8 12 3 12 -4 0 0 9 10 20 10 11 26 20 37 20 10 0 27 -9 38 -20z m41 -168
c-6 -2 -11 -8 -11 -13 0 -6 4 -8 9 -5 5 3 15 -2 22 -11 12 -14 12 -16 0 -8
-11 6 -13 4 -8 -8 10 -27 -9 -20 -21 8 -6 14 -9 32 -5 42 5 12 3 14 -7 8 -9
-5 -11 -4 -6 4 6 9 11 9 23 -1 10 -8 11 -14 4 -16z"/>
<path d="M3289 1695 c-1 -3 -2 -8 -3 -12 -1 -5 -5 -15 -11 -23 -8 -13 -7 -13
9 0 16 13 20 12 37 -9 11 -13 19 -19 19 -13 0 6 -7 17 -15 26 -8 8 -15 19 -15
25 0 11 -19 16 -21 6z"/>
<path d="M2153 1853 c-10 -26 13 -35 24 -10 9 19 8 24 -4 24 -8 0 -17 -7 -20
-14z"/>
<path d="M2470 1849 c0 -5 5 -7 10 -4 6 3 10 8 10 11 0 2 -4 4 -10 4 -5 0 -10
-5 -10 -11z"/>
<path d="M2517 1842 c-22 -25 -21 -35 1 -21 10 7 19 18 19 25 0 18 -1 18 -20
-4z"/>
<path d="M1750 1840 c0 -5 5 -10 12 -10 9 0 9 -3 0 -12 -17 -17 -15 -23 13
-36 25 -11 26 -44 1 -41 -6 1 -19 -1 -28 -5 -15 -7 -18 -22 -18 -102 0 -77 3
-94 15 -94 12 0 15 16 15 85 0 47 3 85 8 86 4 0 18 2 32 5 18 3 21 2 10 -5 -8
-5 -18 -7 -22 -5 -13 8 -10 -4 17 -62 14 -30 30 -52 35 -49 6 3 10 8 10 11 0
3 -4 3 -8 0 -4 -2 -9 5 -9 16 -1 12 -8 25 -14 29 -7 4 -14 14 -15 23 -3 18 23
29 32 14 4 -6 3 -8 -3 -5 -6 4 -14 0 -17 -9 -5 -12 -1 -14 17 -9 17 5 19 4 7
-4 -11 -8 -12 -11 -2 -11 7 0 10 -5 6 -12 -4 -7 -3 -8 4 -4 7 4 10 2 7 -7 -3
-7 3 -22 15 -32 18 -16 20 -16 20 -2 0 10 -5 17 -11 17 -5 0 -8 4 -4 9 3 5 -2
17 -11 25 -8 9 -13 16 -9 16 3 0 -1 13 -9 29 -9 16 -13 31 -10 34 3 3 -3 11
-14 18 -11 7 -18 19 -15 26 3 7 0 13 -7 13 -6 0 -8 4 -5 10 4 6 -1 7 -12 3
-15 -6 -16 -4 -6 8 9 11 8 18 -1 32 -15 19 -26 22 -26 7z"/>
<path d="M1275 1830 c-3 -5 -1 -10 4 -10 6 0 11 5 11 10 0 6 -2 10 -4 10 -3 0
-8 -4 -11 -10z"/>
<path d="M2472 1805 c-1 -13 2 -26 7 -30 5 -3 7 5 5 17 -4 21 -4 21 4 3 5 -11
7 -27 4 -35 -5 -13 -3 -13 10 -2 15 12 15 16 0 43 -21 35 -27 36 -30 4z"/>
<path d="M415 1810 c2 -4 -4 -10 -14 -13 -18 -4 -20 -14 -18 -128 l2 -124 61
0 c72 0 107 16 134 62 23 39 41 36 58 -11 13 -36 46 -56 94 -56 19 0 41 -9 55
-22 18 -17 23 -18 23 -6 0 9 -7 19 -16 22 -8 3 -12 11 -8 17 8 14 -16 30 -31
21 -31 -20 -85 -5 -85 24 0 12 6 11 30 -6 17 -12 30 -17 30 -12 0 13 -25 33
-32 26 -3 -2 -8 2 -12 11 -4 13 -2 14 14 5 25 -13 33 -13 24 2 -4 7 -3 8 4 4
6 -4 8 -14 5 -24 -5 -14 -3 -15 8 -4 7 6 18 12 24 12 5 0 2 -5 -7 -11 -10 -5
-18 -15 -18 -21 0 -9 3 -9 11 -1 6 6 18 9 26 6 19 -7 56 -80 42 -85 -6 -2 -4
-11 5 -23 13 -18 14 -16 10 25 -2 25 -9 47 -14 48 -6 2 -10 9 -10 16 0 6 -14
24 -31 39 l-31 27 26 0 c21 0 25 4 22 23 -3 12 -5 28 -5 35 -2 25 -41 52 -75
52 -25 0 -40 -7 -58 -28 -19 -23 -29 -27 -45 -21 -12 4 -25 18 -29 31 -11 35
-59 74 -86 69 -5 0 -8 4 -8 10 0 6 -6 9 -12 6 -7 -2 -25 0 -41 4 -15 4 -25 4
-22 -1z m19 -51 c-3 -5 0 -9 5 -9 6 0 10 -6 9 -12 -2 -7 3 -12 10 -10 7 1 12
-5 10 -15 -2 -10 3 -18 10 -18 7 0 17 -7 22 -15 7 -11 9 -8 8 14 -2 17 -9 31
-18 33 -9 2 -22 13 -29 25 -7 11 -8 17 -2 13 6 -3 11 0 12 7 0 10 2 10 6 0 2
-6 9 -9 14 -6 15 9 61 -26 55 -42 -3 -8 -2 -14 3 -14 4 0 8 -7 8 -15 0 -8 -4
-12 -9 -9 -4 3 -8 -1 -8 -8 0 -10 -3 -9 -11 2 -9 13 -10 13 -6 0 2 -8 9 -14
15 -13 16 4 24 -34 12 -57 -15 -27 -62 -50 -105 -50 l-35 0 0 110 c0 93 2 109
15 104 8 -4 12 -10 9 -15z m314 -51 c5 -7 13 -23 17 -36 6 -22 4 -23 -39 -21
-25 2 -43 6 -40 11 3 4 1 8 -5 8 -5 0 -12 -6 -15 -12 -3 -7 -3 -2 0 12 7 29
30 50 55 50 9 0 21 -6 27 -12z m-123 -38 c4 -6 -1 -7 -11 -3 -13 5 -15 3 -9
-7 5 -9 4 -11 -4 -6 -6 4 -9 12 -6 17 8 12 22 12 30 -1z"/>
<path d="M476 1748 c3 -4 12 -4 21 -1 10 4 14 2 9 -5 -3 -6 -2 -13 4 -17 6 -4
8 -10 5 -15 -3 -4 2 -10 10 -14 18 -6 16 24 -4 47 -12 15 -54 20 -45 5z"/>
<path d="M1106 1812 c-2 -4 -1 -14 4 -22 7 -11 11 -11 24 2 14 15 14 17 0 22
-20 8 -22 8 -28 -2z"/>
<path d="M2523 1813 c-17 -6 -17 -23 0 -23 8 0 14 7 14 15 0 8 -1 15 -1 14 -1
0 -7 -3 -13 -6z"/>
<path d="M1006 1802 c-2 -4 -1 -14 4 -21 11 -19 41 -6 34 14 -6 16 -29 20 -38
7z"/>
<path d="M1277 1803 c-8 -18 0 -38 14 -36 12 2 15 -8 14 -51 0 -30 -3 -52 -7
-49 -5 2 -8 -1 -8 -6 0 -6 5 -11 10 -11 6 0 10 -22 10 -50 0 -47 -6 -56 -33
-51 -5 1 -6 -3 -3 -8 3 -5 -2 -15 -12 -22 -15 -12 -16 -12 -5 2 7 9 10 19 6
23 -4 4 -8 44 -9 89 -1 45 -2 88 -3 95 -2 21 -94 15 -125 -9 -24 -19 -53 -18
-41 2 4 5 2 9 -4 9 -21 0 -20 -19 1 -36 15 -11 17 -14 6 -11 -11 4 -19 1 -20
-6 0 -7 -2 -16 -2 -22 -1 -5 -7 -19 -13 -29 -9 -17 -11 -16 -10 12 1 18 6 32
11 32 4 0 3 7 -4 15 -11 13 -10 14 5 8 17 -6 17 -5 -1 20 -38 52 -47 33 -47
-95 0 -10 -4 -18 -8 -18 -5 0 -8 -3 -7 -7 1 -5 -6 -23 -15 -40 -10 -18 -17
-34 -16 -35 3 -5 -23 -82 -31 -93 -7 -10 -40 -104 -40 -115 0 -4 15 -6 33 -5
18 1 31 7 29 14 -1 6 2 11 7 11 10 0 9 19 -2 38 -11 17 -28 15 -21 -3 4 -8 11
-12 16 -9 6 4 6 -1 -1 -13 -6 -11 -7 -24 -3 -28 4 -5 2 -5 -5 -1 -7 4 -10 13
-6 21 4 11 1 13 -11 9 -9 -3 -16 -1 -16 6 0 6 5 8 11 5 6 -4 9 -1 8 6 -5 22
10 69 22 69 6 0 7 6 3 13 -5 8 -2 8 9 -2 16 -13 25 -2 10 13 -10 10 -13 37 -3
31 4 -3 7 3 6 13 0 9 5 16 12 14 8 -1 11 2 7 8 -3 6 -11 7 -17 4 -7 -4 -8 -2
-4 5 4 6 12 8 18 5 7 -5 9 -1 5 9 -3 9 -3 19 2 21 4 3 8 -8 9 -25 3 -55 4 -56
46 -57 23 0 65 -4 93 -7 43 -6 61 -3 92 13 21 11 42 18 45 15 3 -4 6 3 6 15 0
12 4 22 10 22 5 0 7 -6 4 -13 -3 -8 3 -13 16 -13 22 0 27 12 8 19 -10 4 -10 6
-1 6 18 1 25 -17 14 -36 -7 -12 -10 -13 -11 -4 0 8 -6 11 -17 6 -10 -4 -26 -8
-37 -11 -36 -7 -26 -11 28 -10 30 0 52 5 49 9 -3 5 4 4 15 -2 14 -7 23 -8 27
-1 4 6 11 8 16 4 5 -3 7 -10 3 -15 -3 -5 -10 -6 -16 -3 -6 4 -9 1 -6 -6 2 -7
15 -15 28 -17 19 -3 22 -1 13 8 -6 6 -9 18 -6 25 3 8 0 14 -6 14 -6 0 -11 11
-11 25 0 14 -5 25 -11 25 -6 0 -9 7 -5 15 3 9 -3 19 -17 26 -12 7 -19 8 -15 4
4 -4 3 -16 -2 -25 -7 -13 -5 -22 7 -31 14 -12 15 -11 9 8 -4 13 -2 24 5 29 8
4 9 3 5 -4 -4 -6 -2 -21 4 -32 13 -24 5 -41 -15 -34 -8 4 -13 10 -10 14 3 4
-1 13 -8 19 -8 6 -13 21 -11 33 1 13 3 27 3 32 1 4 10 6 21 3 11 -3 18 -1 14
4 -3 5 -11 9 -19 9 -8 0 -17 4 -20 10 -3 6 1 7 9 4 9 -3 16 -2 16 4 0 5 -6 12
-13 15 -7 3 -12 18 -12 33 1 24 7 30 29 32 49 6 66 -21 66 -105 0 -58 3 -73
15 -73 12 0 14 14 12 80 -4 99 -15 113 -94 120 -46 4 -57 8 -59 25 -2 11 -8
21 -14 23 -5 2 -8 8 -4 13 3 5 1 9 -5 9 -5 0 -12 -3 -14 -7z m-49 -159 c3 -67
1 -72 -20 -78 -36 -9 -47 -7 -68 14 -48 48 -11 144 53 138 l32 -3 3 -71z
m-138 -8 c0 -19 9 -45 21 -60 l20 -26 -20 -1 c-12 -1 -28 -1 -36 -1 -27 0 -30
2 -30 26 0 13 3 22 8 19 4 -2 7 5 7 16 0 12 5 21 11 21 6 0 9 9 6 20 -3 11 -1
20 4 20 5 0 9 -15 9 -34z m-48 -105 c-11 -7 -11 -9 1 -14 9 -3 18 0 20 7 6 15
81 16 94 2 4 -5 3 -6 -3 -3 -7 4 -14 1 -17 -7 -4 -10 -18 -13 -41 -12 -21 2
-36 -1 -36 -8 0 -6 -5 -4 -10 4 -5 8 -10 11 -10 5 0 -5 -4 -3 -9 5 -11 16 -5
30 12 30 8 0 8 -3 -1 -9z m175 1 c9 -6 7 -11 -7 -19 -15 -10 -21 -9 -32 4 -9
12 -9 15 0 9 6 -4 12 -2 12 3 0 13 10 14 27 3z m-43 -30 c2 -4 -4 -8 -14 -8
-10 0 -16 4 -14 8 3 4 9 8 14 8 5 0 11 -4 14 -8z"/>
<path d="M1070 1520 c0 -4 14 -7 30 -7 17 0 30 3 30 7 0 3 -13 6 -30 6 -16 0
-30 -3 -30 -6z"/>
<path d="M2233 1792 c0 -12 5 -22 9 -22 11 0 10 12 -2 30 -7 12 -9 10 -7 -8z"/>
<path d="M2297 1793 c-4 -3 -7 -52 -7 -107 0 -93 -2 -102 -22 -115 -19 -12
-20 -14 -5 -22 9 -5 14 -16 11 -24 -4 -8 -1 -15 4 -15 6 0 9 8 7 18 -2 15 6
17 69 17 56 0 77 4 101 21 17 12 35 19 41 17 7 -2 10 6 9 21 -3 19 0 23 13 18
14 -5 15 -3 6 9 -7 8 -11 25 -10 39 1 14 -1 33 -6 42 -5 11 -3 21 9 30 10 7
19 20 21 28 3 10 -5 7 -21 -8 -20 -19 -27 -21 -34 -10 -14 24 -79 48 -130 48
-27 0 -53 -3 -56 -7z m118 -27 c41 -17 55 -42 55 -96 0 -23 -5 -50 -11 -62
-13 -24 -67 -48 -109 -48 l-30 0 0 110 0 110 30 0 c17 0 46 -6 65 -14z m-115
-200 c0 -2 -7 -7 -16 -10 -8 -3 -12 -2 -9 4 6 10 25 14 25 6z"/>
<path d="M1078 1773 c-10 -2 -18 -8 -18 -13 0 -5 -3 -17 -7 -27 -6 -16 -5 -16
10 -5 18 15 41 7 31 -11 -3 -7 1 -3 10 7 8 10 13 23 10 27 -3 5 1 9 8 9 9 0 9
3 -2 10 -8 5 -17 9 -20 9 -3 -1 -13 -3 -22 -6z m22 -23 c8 -5 11 -10 5 -10 -5
0 -17 5 -25 10 -8 5 -10 10 -5 10 6 0 17 -5 25 -10z"/>
<path d="M856 1727 c-12 -9 -17 -23 -14 -42 2 -25 12 -34 51 -53 74 -35 56
-84 -24 -67 -24 6 -30 4 -27 -6 3 -9 23 -15 51 -17 40 -3 48 0 62 22 24 36 11
64 -39 86 -24 10 -46 25 -49 33 -9 23 19 40 53 34 31 -7 50 7 24 17 -26 10
-69 7 -88 -7z"/>
<path d="M2210 1735 c0 -7 30 -13 34 -7 3 4 -4 9 -15 9 -10 1 -19 0 -19 -2z"/>
<path d="M2521 1731 c-9 -6 -10 -10 -2 -16 7 -4 9 -16 6 -28 -5 -17 -4 -19 4
-7 13 18 14 1 1 -20 -5 -9 -5 -19 2 -27 7 -9 6 -14 -6 -19 -9 -3 -15 -14 -14
-23 2 -10 -4 -16 -16 -16 -12 0 -20 -8 -22 -23 -2 -12 1 -22 7 -22 5 0 7 4 4
10 -4 6 1 7 11 3 11 -4 15 -3 10 5 -3 6 -2 13 3 16 5 4 8 -2 6 -11 -2 -10 -4
-21 -4 -25 -1 -5 -4 -7 -8 -7 -18 3 -33 -2 -33 -9 0 -4 16 -9 37 -9 24 -1 32
2 22 8 -12 7 -12 9 1 9 13 0 13 1 0 10 -13 9 -13 10 0 10 12 0 12 2 1 9 -9 6
-10 10 -2 16 7 3 9 15 6 26 -4 11 -2 19 4 19 6 0 11 -7 11 -15 0 -8 10 -24 22
-35 17 -16 33 -20 67 -18 24 2 46 8 48 15 3 8 -8 10 -35 6 -32 -4 -44 -1 -61
16 -40 40 -29 51 55 51 57 0 73 3 68 13 -5 8 -2 8 9 -2 24 -19 21 2 -3 24 -11
10 -18 20 -15 23 2 3 -7 16 -21 29 -32 29 -80 30 -110 2 -23 -22 -49 -17 -40
7 6 16 6 17 -13 5z m138 -25 c9 -11 8 -17 -3 -29 -8 -8 -12 -18 -8 -23 4 -5
-1 -2 -10 5 -10 7 -18 9 -18 4 0 -17 -36 -9 -37 9 -1 11 5 18 15 18 15 0 15
-2 2 -10 -13 -8 -13 -10 2 -10 9 0 20 5 23 10 4 6 10 8 15 5 5 -3 12 0 15 6 5
7 -1 10 -16 9 -13 -1 -31 -2 -39 -1 -13 1 -13 2 0 11 21 14 46 12 59 -4z"/>
<path d="M2744 1714 c5 -17 3 -23 -4 -19 -21 13 -32 -7 -14 -26 9 -10 21 -16
25 -13 5 3 6 -1 3 -9 -3 -8 1 -17 8 -20 8 -3 20 -23 28 -46 9 -28 19 -41 32
-41 10 0 18 1 18 3 0 1 16 46 35 100 26 73 31 97 21 97 -9 0 -26 -33 -44 -87
-29 -85 -30 -87 -41 -60 -11 28 -7 52 8 43 4 -3 8 1 8 9 0 17 -9 19 -23 5 -7
-7 -10 -2 -10 15 0 26 11 34 18 13 2 -6 10 -8 16 -4 19 12 4 26 -27 26 -20 0
-30 6 -34 20 -3 11 -11 20 -17 20 -8 0 -10 -9 -6 -26z m1 -42 c-3 -3 -11 0
-18 7 -9 10 -8 11 6 5 10 -3 15 -9 12 -12z"/>
<path d="M3893 1734 c-9 -4 -13 -34 -13 -100 0 -77 3 -94 15 -94 12 0 15 17
15 91 l0 91 40 -4 c25 -2 39 0 37 7 -4 11 -74 17 -94 9z"/>
<path d="M3767 1600 c-21 -25 -21 -27 -2 -27 8 0 15 4 15 9 0 5 4 7 9 4 5 -4
7 3 4 14 -6 24 -5 24 -26 0z"/>
<path d="M1635 1589 c-9 -14 -2 -20 14 -10 8 6 9 11 3 15 -6 3 -14 1 -17 -5z"/>
<path d="M1840 1582 c-13 -14 -12 -15 5 -8 16 6 17 5 8 -5 -9 -9 -6 -23 15
-63 14 -28 25 -54 24 -58 -1 -5 3 -8 8 -8 6 0 9 -3 9 -7 -4 -24 4 -32 31 -31
27 1 31 4 30 23 -1 3 6 13 15 21 12 13 13 19 4 30 -15 19 -35 18 -43 -2 -9
-22 -8 -24 9 -18 8 4 12 11 8 17 -3 6 -1 7 5 3 6 -4 9 -13 6 -21 -4 -8 -10
-12 -15 -9 -5 3 -9 0 -9 -5 0 -6 5 -11 11 -11 5 0 7 -5 3 -11 -4 -8 -11 -5
-18 8 -6 11 -17 19 -24 17 -7 -1 -8 0 -2 3 12 5 14 24 3 22 -28 -5 -35 1 -22
18 12 15 12 16 -4 10 -11 -4 -16 -3 -12 3 3 6 1 10 -4 10 -6 0 -11 5 -11 11 0
8 4 8 15 -1 8 -6 20 -8 26 -4 7 4 9 3 5 -4 -3 -5 0 -13 6 -15 10 -4 10 -6 1
-6 -18 -1 -16 -18 1 -18 9 0 13 8 10 20 -4 21 -24 48 -24 32 0 -4 -9 0 -20 10
-14 13 -20 14 -20 5 0 -7 -2 -11 -5 -8 -3 3 -2 13 1 22 5 13 9 14 14 6 4 -7
10 -8 13 -4 3 5 -5 16 -17 25 -19 15 -23 15 -36 1z m95 -162 c3 -6 -1 -7 -9
-4 -18 7 -21 14 -7 14 6 0 13 -4 16 -10z"/>
<path d="M1895 1540 c4 -6 11 -8 16 -5 14 9 11 15 -7 15 -8 0 -12 -5 -9 -10z"/>
<path d="M767 1515 c6 -11 8 -26 6 -32 -3 -7 -1 -13 4 -13 15 0 12 38 -4 52
-14 11 -15 11 -6 -7z"/>
<path d="M1615 1520 c-3 -5 -1 -10 4 -10 6 0 11 5 11 10 0 6 -2 10 -4 10 -3 0
-8 -4 -11 -10z"/>
<path d="M3750 1519 c0 -5 -4 -8 -8 -5 -5 3 -9 -28 -9 -69 0 -41 4 -75 9 -75
4 0 8 -5 8 -11 0 -5 -4 -8 -8 -5 -4 2 -9 -9 -10 -25 -3 -32 9 -37 28 -14 8 9
8 15 2 15 -6 0 -12 -3 -15 -7 -2 -5 -2 -1 1 7 9 29 9 55 0 67 -13 17 8 26 31
13 17 -9 19 -7 16 10 -2 11 -6 24 -9 29 -4 5 0 12 6 14 9 4 8 6 -2 6 -8 0 -22
-4 -30 -9 -10 -6 -11 -10 -2 -10 6 0 12 -4 12 -8 0 -5 -6 -9 -13 -9 -15 0 -16
47 -2 80 4 9 4 17 1 17 -3 0 -6 -5 -6 -11z"/>
<path d="M985 1490 c4 -12 2 -20 -6 -20 -9 0 -9 -3 1 -15 12 -15 5 -39 -10
-30 -4 3 -13 -2 -20 -10 -10 -12 -10 -18 0 -30 19 -23 24 -19 40 33 19 63 20
80 3 86 -11 4 -13 1 -8 -14z m-18 -92 c2 -17 0 -19 -7 -8 -5 8 -6 18 -4 22 8
12 10 10 11 -14z"/>
<path d="M2484 1492 c-14 -10 -15 -194 -1 -189 6 2 12 10 15 18 3 11 1 11 -8
-1 -10 -13 -11 -13 -7 0 2 9 14 15 31 14 16 -1 25 3 23 10 -2 6 -12 10 -22 8
-13 -3 -16 1 -11 13 4 12 2 16 -7 12 -9 -3 -13 4 -13 23 0 19 4 26 13 23 9 -4
11 0 7 11 -3 9 -9 14 -13 11 -9 -5 -7 32 1 41 4 3 15 1 25 -6 16 -10 16 -10
-4 -5 -18 5 -22 3 -17 -9 3 -9 9 -14 13 -12 3 3 6 -18 5 -44 0 -27 3 -47 7
-44 4 2 10 0 14 -5 3 -6 11 -9 18 -7 7 1 9 1 5 -1 -12 -7 -9 -23 3 -20 6 1 14
-5 16 -13 4 -12 3 -12 -5 -2 -5 8 -13 14 -17 14 -4 0 -12 -6 -16 -14 -7 -10
-9 -10 -9 0 0 7 -4 10 -10 7 -25 -15 -4 -21 78 -21 48 1 93 5 101 10 8 5 12 5
8 0 -3 -5 35 -9 87 -9 76 -1 92 2 93 15 1 8 3 21 5 29 2 7 -3 16 -11 19 -10 3
-13 -1 -9 -16 4 -14 2 -19 -8 -15 -7 2 -10 11 -7 19 3 8 0 14 -7 14 -6 0 -8
-4 -5 -10 3 -5 1 -10 -6 -10 -7 0 -4 -6 7 -14 10 -8 16 -18 11 -22 -4 -4 -7
-2 -7 5 0 7 -4 9 -10 6 -9 -6 -14 7 -11 31 0 6 -12 10 -29 10 -16 0 -30 -4
-30 -8 0 -5 10 -7 23 -4 12 3 16 3 9 0 -9 -4 -8 -10 6 -22 9 -10 13 -14 8 -9
-15 11 -28 8 -20 -5 4 -7 3 -8 -5 -4 -6 4 -9 11 -6 16 3 4 -2 10 -10 14 -9 3
-19 -3 -25 -15 -6 -11 -15 -17 -21 -14 -5 4 -7 10 -5 14 3 4 -8 8 -23 8 -22 0
-28 -4 -24 -16 4 -14 3 -14 -7 -1 -8 11 -13 12 -16 3 -7 -16 -42 18 -36 35 2
6 -1 12 -8 12 -6 0 -8 -4 -5 -10 3 -5 1 -10 -6 -10 -7 0 -4 -6 7 -14 10 -8 16
-18 11 -22 -4 -4 -7 -1 -7 7 0 11 -2 11 -10 -1 -8 -13 -10 -12 -11 5 -1 11 -1
26 0 33 1 7 -2 12 -6 11 -44 -7 -51 0 -51 57 1 37 -4 59 -13 65 -17 11 -21 11
-35 1z"/>
<path d="M793 1472 c-1 -10 5 -19 13 -19 16 0 16 0 8 21 -8 22 -19 20 -21 -2z"/>
<path d="M3063 1484 c-9 -4 -9 -11 -1 -30 11 -24 28 -33 28 -14 0 6 -6 10 -12
10 -9 0 -8 4 2 10 13 9 13 10 0 10 -13 0 -13 1 0 10 15 10 4 12 -17 4z"/>
<path d="M3750 1480 c0 -5 5 -10 10 -10 6 0 10 5 10 10 0 6 -4 10 -10 10 -5 0
-10 -4 -10 -10z"/>
<path d="M1374 1460 c3 -14 5 -26 7 -27 1 -2 3 -7 4 -13 1 -5 4 -12 5 -15 1
-3 3 -10 4 -17 2 -16 23 -21 32 -7 5 9 2 10 -11 5 -15 -5 -16 -4 -5 9 10 12 9
15 -6 15 -15 0 -16 2 -5 9 10 7 20 0 37 -25 34 -50 48 -78 35 -70 -6 4 -11 1
-11 -6 0 -10 -2 -10 -8 -1 -5 8 -13 9 -22 3 -13 -9 -13 -10 0 -11 8 0 25 -2
36 -4 24 -5 27 16 6 53 -7 12 -9 22 -5 22 4 0 -2 7 -13 16 -10 8 -14 13 -7 10
7 -4 9 1 6 14 -3 11 -10 20 -15 20 -5 0 -6 -6 -3 -12 4 -7 -1 -4 -9 6 -12 14
-16 16 -16 5 0 -8 -9 0 -20 16 -19 29 -20 29 -16 5z"/>
<path d="M772 1445 c2 -11 -1 -26 -7 -33 -25 -31 -49 -51 -57 -46 -4 3 -8 1
-8 -5 0 -19 19 -21 29 -4 6 10 11 13 11 6 0 -6 -4 -14 -10 -18 -5 -3 -7 -13
-4 -23 5 -14 4 -15 -5 -2 -9 13 -11 13 -11 1 0 -12 -3 -12 -12 -3 -13 13 -32
16 -24 4 2 -4 1 -14 -5 -22 -8 -14 -11 -7 -8 16 0 4 -5 11 -13 15 -8 6 2 7 25
4 32 -4 37 -2 27 9 -7 10 -19 12 -38 7 -15 -5 -34 -7 -43 -6 -12 2 -15 -3 -12
-16 3 -10 10 -19 15 -19 5 0 6 5 2 12 -5 7 -3 8 5 4 7 -5 10 -10 7 -14 -3 -3
2 -11 11 -17 19 -14 46 -9 37 7 -4 6 1 8 13 4 25 -8 54 2 52 18 -4 30 3 45 21
51 11 4 18 11 14 16 -3 5 -11 7 -17 3 -7 -3 -2 3 11 13 21 17 21 20 7 38 -16
20 -16 20 -13 0z"/>
<path d="M3475 1431 c-9 -19 -11 -32 -5 -36 6 -3 10 -1 10 5 0 7 5 6 14 -2 9
-9 10 -15 3 -20 -6 -4 -14 -5 -18 -2 -4 2 -10 -3 -13 -12 -4 -12 -2 -15 9 -10
15 5 19 -3 16 -34 -1 -11 9 -16 31 -16 18 -1 27 1 21 3 -7 3 -13 9 -13 14 0 6
3 8 8 5 4 -2 8 11 8 30 0 23 -4 33 -12 30 -6 -2 -22 6 -35 20 -12 13 -17 24
-10 24 7 0 9 5 6 10 -3 6 -2 10 4 10 5 0 11 -6 14 -12 2 -7 8 -9 13 -5 8 8
-12 27 -28 27 -4 0 -14 -13 -23 -29z m56 -68 c13 -16 12 -17 -3 -4 -19 14 -25
2 -8 -15 6 -6 5 -15 -1 -24 -9 -13 -10 -13 -6 1 3 9 1 21 -5 27 -6 6 -7 15 -4
21 9 14 11 14 27 -6z"/>
<path d="M803 1438 c4 -10 2 -20 -4 -24 -6 -3 -8 -12 -5 -20 3 -7 -4 -18 -15
-24 -11 -6 -17 -15 -14 -20 3 -4 0 -10 -7 -12 -9 -3 -9 -6 0 -12 7 -4 12 -2
12 3 0 6 7 11 16 11 10 0 14 6 10 15 -3 9 1 15 11 15 12 0 13 3 4 14 -9 11 -9
16 0 22 8 5 10 3 4 -7 -6 -11 -5 -11 5 -2 10 9 9 16 -5 35 -11 14 -15 16 -12
6z"/>
<path d="M820 1440 c0 -5 5 -10 10 -10 6 0 10 5 10 10 0 6 -4 10 -10 10 -5 0
-10 -4 -10 -10z"/>
<path d="M3413 1437 c-3 -6 -1 -7 5 -3 8 4 12 0 12 -11 1 -24 26 -57 34 -44 4
5 2 12 -4 16 -6 4 -8 10 -5 15 8 13 -5 37 -21 37 -8 0 -18 -5 -21 -10z"/>
<path d="M3063 1395 c-11 -25 -7 -31 12 -17 11 8 16 42 6 42 -3 0 -11 -11 -18
-25z"/>
<path d="M2490 1400 c0 -5 5 -10 11 -10 5 0 7 5 4 10 -3 6 -8 10 -11 10 -2 0
-4 -4 -4 -10z"/>
<path d="M3757 1398 c6 -7 9 -24 8 -36 -1 -13 5 -26 12 -29 12 -5 12 -7 2 -14
-8 -4 -10 -11 -6 -15 17 -17 30 30 16 58 -6 11 -5 18 4 21 7 3 5 6 -5 6 -10 1
-18 6 -18 11 0 6 -5 10 -11 10 -8 0 -8 -4 -2 -12z"/>
<path d="M416 1382 c-10 -17 -15 -62 -5 -57 5 4 9 1 9 -6 0 -7 3 -9 7 -6 3 4
12 2 19 -4 15 -13 37 -2 28 13 -4 6 -10 5 -15 -3 -7 -11 -9 -10 -9 4 0 9 -3
16 -7 16 -28 -5 -36 2 -18 15 19 14 40 12 31 -3 -3 -4 14 -8 37 -9 73 -2 77
-3 66 -24 -13 -24 6 -25 20 0 9 15 10 15 11 0 0 -9 6 -18 13 -21 6 -2 -2 -4
-20 -3 -17 1 -35 4 -38 8 -4 4 -13 4 -20 2 -7 -3 -16 -1 -20 5 -3 6 0 9 8 5 7
-2 14 1 14 9 0 8 -11 14 -29 14 -18 0 -25 -4 -19 -10 5 -5 7 -15 5 -21 -2 -6
3 -12 13 -13 10 -1 46 -4 81 -7 l63 -4 -25 23 c-14 13 -26 28 -26 33 0 5 -6 9
-12 10 -61 4 -98 11 -125 25 -18 10 -34 13 -37 9z"/>
<path d="M1419 1364 c-13 -16 -12 -17 6 -11 20 7 20 7 1 -8 -19 -15 -19 -15 7
-13 31 3 32 7 14 32 -13 17 -14 17 -28 0z"/>
<path d="M2241 1361 c-10 -6 -9 -10 5 -15 20 -8 25 -4 16 11 -4 7 -13 9 -21 4z"/>
<path d="M2633 1351 c2 -9 10 -14 18 -12 8 2 34 5 58 5 25 1 46 6 48 13 3 8
-6 12 -25 10 -17 -1 -28 -5 -25 -9 2 -5 -1 -8 -6 -8 -6 0 -11 4 -11 8 0 5 -14
8 -30 8 -23 0 -30 -4 -27 -15z"/>
<path d="M3070 1359 c0 -5 -4 -8 -8 -5 -4 2 -8 -4 -8 -13 0 -15 4 -16 16 -8
17 10 23 37 8 37 -4 0 -8 -5 -8 -11z"/>
<path d="M535 1320 c3 -5 8 -10 11 -10 2 0 4 5 4 10 0 6 -5 10 -11 10 -5 0 -7
-4 -4 -10z"/>
</g>
</svg>
